<svg xmlns="http://www.w3.org/2000/svg" xmlns:xlink="http://www.w3.org/1999/xlink" version="1.1" x="0px" y="0px" viewBox="0 0 612 990" enable-background="new 0 0 612 792" xml:space="preserve"><g><g><path d="M536.943,200.356c0-22.644-18.43-41.073-41.073-41.073H386.83v-14.642c0-19.099-15.542-34.642-34.642-34.642h-92.377    c-19.099,0-34.642,15.542-34.642,34.642v14.642H116.13c-22.644,0-41.073,18.429-41.073,41.073v51.304h23.094v407.28    c0,23.741,19.318,43.06,43.06,43.06h329.568c23.752,0,43.06-19.318,43.06-43.06V251.66h23.094v-51.304H536.943z M248.264,144.642    c0-6.374,5.185-11.547,11.547-11.547h92.377c6.362,0,11.548,5.173,11.548,11.547v14.642H248.264V144.642z M490.755,658.94    c0,11.017-8.961,19.965-19.965,19.965H141.21c-11.016,0-19.965-8.948-19.965-19.965V251.66h369.51V658.94z M513.849,228.566    H98.151v-28.209c0-9.919,8.06-17.979,17.979-17.979h109.04h161.66h109.04c9.919,0,17.979,8.06,17.979,17.979V228.566z"/></g><path d="M306,648.017c5.726,0,10.373-4.637,10.373-10.373V295.339c0-5.736-4.647-10.373-10.373-10.373s-10.373,4.637-10.373,10.373   v342.305C295.627,643.38,300.274,648.017,306,648.017z"/><path d="M182.271,648.017c5.726,0,10.373-4.637,10.373-10.373V295.339c0-5.736-4.647-10.373-10.373-10.373   c-5.726,0-10.373,4.637-10.373,10.373v342.305C171.898,643.38,176.545,648.017,182.271,648.017z"/><path d="M429.729,648.017c5.727,0,10.373-4.637,10.373-10.373V295.339c0-5.736-4.646-10.373-10.373-10.373   c-5.726,0-10.373,4.637-10.373,10.373v342.305C419.355,643.38,424.003,648.017,429.729,648.017z"/></g><text x="0" y="807" fill="#000000" font-size="5px" font-weight="bold" font-family="'Helvetica Neue', Helvetica, Arial-Unicode, Arial, Sans-serif">Created by Nancy </text><text x="0" y="812" fill="#000000" font-size="5px" font-weight="bold" font-family="'Helvetica Neue', Helvetica, Arial-Unicode, Arial, Sans-serif">from the Noun Project</text></svg>